<svg xmlns="http://www.w3.org/2000/svg" xmlns:xlink="http://www.w3.org/1999/xlink" preserveAspectRatio="xMidYMid meet" version="1.0" viewBox="49.2 147.7 403.5 189.0" zoomAndPan="magnify" style="fill: rgb(0, 0, 0);" original_string_length="981" width="33.87130818152624px" height="15.827138550276809px"><g id="__id11_shiyv6ctvl"><path d="M445,304c-6.7,18.3-26.7,32.4-47.2,32.4c-95.8,0.1-191.6,0-287.4,0.3c-11.3,0-21.4-3.4-31.5-7.4 c-11.1-5.1-17.8-15-23.7-24.6c-6-9.8-3.4-20.1,1.2-29.8c0.1-1.1,0.2-2.2,0.3-3.2c0.9-2.6,0.2-5.7,2.8-7.7 c10.5-16.3,23.8-28.5,44.5-29.4c6-0.2,5.8-4.3,5.7-8.5c-0.1-7.3-0.1-14.6,5.6-20.4c1.7-4.2,4.8-6.7,9.1-7.9c8.6-5.8,17.6-6.1,26.9-2 c6.8,7.6,8,7.8,11.9,2.2l0,0.2c3.6-7.9,9.3-13.6,17.2-17.2c40.9-33.3,106.3-17.2,129,32.1c3.9,8.5,5.7,12.9,16.3,6.1 c14.4-9.3,34.5-1.4,41.9,14.1c1.4,2.9,2.9,5.7,4.4,8.5c19.7-11.1,41.5-9.5,57.5,4.2C446.7,260.6,452.7,283,445,304z" style="fill: rgb(238, 153, 42);"/></g></svg>