<svg xmlns="http://www.w3.org/2000/svg" xmlns:xlink="http://www.w3.org/1999/xlink" preserveAspectRatio="xMidYMid meet" version="1.0" viewBox="0.0 0.0 400.0 263.7" zoomAndPan="magnify" style="fill: rgb(238, 153, 42);" original_string_length="1038" width="46.22209516612288px" height="30.506582809641092px"><g id="__id12_s1xf4li3ct"><path clip-rule="evenodd" d="M54.3,128.66c-15.6,3.27-29.29,11.92-39.03,23.9C5.73,164.29,0,179.25,0,195.49 c0,18.77,7.68,35.83,20.05,48.2s29.44,20.05,48.2,20.05h263.49c18.76,0,35.83-7.68,48.2-20.05c12.37-12.37,20.05-29.44,20.05-48.2 c0-12.5-3.38-24.21-9.26-34.26c-6.12-10.46-14.96-19.18-25.51-25.17c-2.47-1.4-3.91-4.26-3.37-7.22c0.61-3.31,1.08-6.65,1.39-9.97 c0.29-3.12,0.43-6.48,0.43-10.06c0-30.05-12.18-57.25-31.87-76.94C312.13,12.18,284.92,0,254.88,0c-22.11,0-42.65,6.56-59.77,17.84 c-17.67,11.63-31.75,28.31-40.22,48.01c-1.48,3.43-5.43,5.07-8.91,3.66c-3.71-1.51-7.59-2.68-11.6-3.46 c-3.88-0.76-7.93-1.16-12.09-1.16c-16.4,0-31.34,6.29-42.5,16.58c-11.26,10.37-18.71,24.83-20.01,41.01 C59.52,125.44,57.36,128.03,54.3,128.66L54.3,128.66z" fill-rule="evenodd" style="fill: inherit;"/></g></svg>